<svg width="45" height="55" viewBox="0 0 45 55" fill="none" xmlns="http://www.w3.org/2000/svg">
<path d="M1.5 11.1594V5C1.5 3.067 3.067 1.5 5 1.5H29.2511C30.0437 1.5 30.8128 1.76904 31.4327 2.26309L42.1816 10.8311C43.0147 11.4952 43.5 12.5026 43.5 13.568V50C43.5 51.933 41.933 53.5 40 53.5H5C3.067 53.5 1.5 51.933 1.5 50V11.1594Z" fill="white" stroke="black" stroke-width="3"/>
<path d="M6 19C6 18.4477 6.44772 18 7 18H39C39.5523 18 40 18.4477 40 19C40 19.5523 39.5523 20 39 20H7C6.44772 20 6 19.5523 6 19Z" fill="#433672"/>
<path d="M6 29C6 28.4477 6.44772 28 7 28H39C39.5523 28 40 28.4477 40 29C40 29.5523 39.5523 30 39 30H7C6.44772 30 6 29.5523 6 29Z" fill="#433672"/>
<path d="M6 24C6 23.4477 6.44772 23 7 23H39C39.5523 23 40 23.4477 40 24C40 24.5523 39.5523 25 39 25H7C6.44772 25 6 24.5523 6 24Z" fill="#433672"/>
<path d="M6 34C6 33.4477 6.44772 33 7 33H39C39.5523 33 40 33.4477 40 34C40 34.5523 39.5523 35 39 35H7C6.44772 35 6 34.5523 6 34Z" fill="#433672"/>
<path d="M6 29C6 28.4477 6.44772 28 7 28H39C39.5523 28 40 28.4477 40 29C40 29.5523 39.5523 30 39 30H7C6.44772 30 6 29.5523 6 29Z" fill="#433672"/>
<path d="M6 39C6 38.4477 6.44772 38 7 38H39C39.5523 38 40 38.4477 40 39C40 39.5523 39.5523 40 39 40H7C6.44772 40 6 39.5523 6 39Z" fill="#433672"/>
<path d="M6 34C6 33.4477 6.44772 33 7 33H39C39.5523 33 40 33.4477 40 34C40 34.5523 39.5523 35 39 35H7C6.44772 35 6 34.5523 6 34Z" fill="#433672"/>
<path d="M6 44C6 43.4477 6.44772 43 7 43H39C39.5523 43 40 43.4477 40 44C40 44.5523 39.5523 45 39 45H7C6.44772 45 6 44.5523 6 44Z" fill="#433672"/>
</svg>
