<svg width="28" height="28" viewBox="0 0 28 28" fill="none" xmlns="http://www.w3.org/2000/svg">
<path d="M27 14C27 21.1797 21.1797 27 14 27C6.8203 27 1 21.1797 1 14C1 6.8203 6.8203 1 14 1C21.1797 1 27 6.8203 27 14Z" stroke="black"/>
<path d="M27 14C27 21.1797 21.1797 27 14 27C6.8203 27 1 21.1797 1 14C1 6.8203 6.8203 1 14 1C21.1797 1 27 6.8203 27 14Z" stroke="black" stroke-opacity="0.2"/>
<path d="M20 16.5C20 17.5 17.3137 16.5 14 16.5C10.6863 16.5 8 17.5 8 16.5C8 13.1863 10.6863 5.5 14 5.5C17.3137 5.5 20 13.1863 20 16.5Z" stroke="black"/>
<path d="M20 16.5C20 17.5 17.3137 16.5 14 16.5C10.6863 16.5 8 17.5 8 16.5C8 13.1863 10.6863 5.5 14 5.5C17.3137 5.5 20 13.1863 20 16.5Z" stroke="black" stroke-opacity="0.2"/>
<path d="M16 19.5C16 20.6046 15.1046 21.5 14 21.5C12.8954 21.5 12 20.6046 12 19.5C12 18.3954 12.8954 17.5 14 17.5C15.1046 17.5 16 18.3954 16 19.5Z" stroke="black"/>
<path d="M16 19.5C16 20.6046 15.1046 21.5 14 21.5C12.8954 21.5 12 20.6046 12 19.5C12 18.3954 12.8954 17.5 14 17.5C15.1046 17.5 16 18.3954 16 19.5Z" stroke="black" stroke-opacity="0.2"/>
</svg>
