<svg width="61" height="61" viewBox="0 0 61 61" fill="none" xmlns="http://www.w3.org/2000/svg">
<path d="M60 30.5C60 46.7924 46.7924 60 30.5 60C14.2076 60 1 46.7924 1 30.5C1 14.2076 14.2076 1 30.5 1C46.7924 1 60 14.2076 60 30.5Z" fill="#2C1C74"/>
<path d="M60 30.5C60 46.7924 46.7924 60 30.5 60C14.2076 60 1 46.7924 1 30.5C1 14.2076 14.2076 1 30.5 1C46.7924 1 60 14.2076 60 30.5Z" fill="url(#paint0_radial_306_10)" fill-opacity="0.2"/>
<path d="M26 46C26 48.7614 28.2386 51 31 51C33.7614 51 36 48.7614 36 46V35H47.5C49.9853 35 52 32.9853 52 30.5C52 28.0147 49.9853 26 47.5 26H36V15C36 12.2386 33.7614 10 31 10C28.2386 10 26 12.2386 26 15V26L14.5 26C12.0147 26 10 28.0147 10 30.5C10 32.9853 12.0147 35 14.5 35H26V46Z" fill="white"/>
<path d="M60 30.5C60 46.7924 46.7924 60 30.5 60C14.2076 60 1 46.7924 1 30.5C1 14.2076 14.2076 1 30.5 1C46.7924 1 60 14.2076 60 30.5Z" stroke="#7700FF" stroke-width="2"/>
<path d="M26 46C26 48.7614 28.2386 51 31 51C33.7614 51 36 48.7614 36 46V35H47.5C49.9853 35 52 32.9853 52 30.5C52 28.0147 49.9853 26 47.5 26H36V15C36 12.2386 33.7614 10 31 10C28.2386 10 26 12.2386 26 15V26L14.5 26C12.0147 26 10 28.0147 10 30.5C10 32.9853 12.0147 35 14.5 35H26V46Z" stroke="#7700FF" stroke-width="2"/>
<defs>
<radialGradient id="paint0_radial_306_10" cx="0" cy="0" r="1" gradientUnits="userSpaceOnUse" gradientTransform="translate(30.5 30.5) rotate(90) scale(29.5)">
<stop stop-opacity="0"/>
<stop offset="0.58" stop-opacity="0.265"/>
<stop offset="1"/>
</radialGradient>
</defs>
</svg>
