<svg width="27" height="30" viewBox="0 0 27 30" fill="none" xmlns="http://www.w3.org/2000/svg">
<path d="M0 1.66036C0 0.74337 0.75552 0 1.6875 0H16.6326V26.9707H1.6875C0.755519 26.9707 0 26.2274 0 25.3104V1.66036Z" fill="white"/>
<path d="M16.6326 0L25.8942 3.34639C26.5585 3.58641 27 4.20872 27 4.90498V28.3382C27 29.4926 25.8322 30.2947 24.7308 29.8968L16.6326 26.9707V0Z" fill="#4A378D"/>
<path d="M1.6875 0.5H16.1326V26.4707H1.6875C1.02399 26.4707 0.5 25.9436 0.5 25.3104V1.66036C0.5 1.02712 1.02399 0.5 1.6875 0.5ZM24.9007 29.4265L17.1326 26.6198V0.712297L25.7243 3.81664C26.1943 3.98647 26.5 4.42342 26.5 4.90498V28.3382C26.5 29.1343 25.6874 29.7108 24.9007 29.4265Z" stroke="black"/>
</svg>
