<svg width="72" height="72" viewBox="0 0 72 72" fill="none" xmlns="http://www.w3.org/2000/svg">
<rect x="1.5" y="1.5" width="69" height="69" rx="34.5" stroke="black" stroke-width="3"/>
<path d="M37.3853 41.6273L36.3246 40.5666L35.2639 41.6273L27.4874 49.4038C26.315 50.5762 24.4137 50.5764 23.2429 49.4056C22.0714 48.2341 22.0714 46.3346 23.2429 45.163L31.0213 37.3846L32.082 36.324L31.0213 35.2633L23.2433 27.4853C22.0718 26.3138 22.0718 24.4143 23.2433 23.2427C24.4149 22.0711 26.3144 22.0711 27.486 23.2427L35.2639 31.0207L36.3246 32.0813L37.3853 31.0207L45.1632 23.2427C46.3348 22.0711 48.2343 22.0711 49.4059 23.2427C50.5767 24.4135 50.5764 26.3148 49.4041 27.4872L41.6279 35.2633L40.5672 36.324L41.6279 37.3846L49.4063 45.163C50.5778 46.3346 50.5778 48.2341 49.4063 49.4056C48.2347 50.5772 46.3352 50.5772 45.1636 49.4056L37.3853 41.6273Z" stroke="black" stroke-width="3"/>
</svg>
