<svg width="19" height="19" viewBox="0 0 19 19" fill="none" xmlns="http://www.w3.org/2000/svg">
<path d="M19 9.5C19 14.7467 14.7467 19 9.5 19C4.25329 19 0 14.7467 0 9.5C0 4.25329 4.25329 0 9.5 0C14.7467 0 19 4.25329 19 9.5Z" fill="#70B3DD"/>
<path d="M17 6.5C17 8.433 15.433 10 13.5 10C11.567 10 10 8.433 10 6.5C10 4.567 11.567 3 13.5 3C15.433 3 17 4.567 17 6.5Z" fill="#2D6587"/>
<path d="M6 7.5C6 8.88071 4.88071 10 3.5 10C2.11929 10 1 8.88071 1 7.5C1 6.11929 2.11929 5 3.5 5C4.88071 5 6 6.11929 6 7.5Z" fill="#2D6587"/>
<path d="M11 12C11 13.1046 10.1046 14 9 14C7.89543 14 7 13.1046 7 12C7 10.8954 7.89543 10 9 10C10.1046 10 11 10.8954 11 12Z" fill="#2D6587"/>
</svg>
