<svg width="66" height="35" viewBox="0 0 66 35" fill="none" xmlns="http://www.w3.org/2000/svg">
<path d="M10.6522 8.34783H31.0711C33.7905 8.34783 35.995 6.14332 35.995 3.42391C35.995 2.36136 36.8564 1.5 37.919 1.5H45.9946C48.8107 1.5 51.4962 2.68741 53.3913 4.77043L54.5008 3.76102L53.3913 4.77043L62.8294 15.1447C64.0441 16.48 64.0441 18.52 62.8294 19.8553L53.3913 30.2296C51.4962 32.3126 48.8107 33.5 45.9946 33.5H37.919C36.8564 33.5 35.995 32.6386 35.995 31.5761C35.995 28.8567 33.7905 26.6522 31.0711 26.6522H10.6522C5.59757 26.6522 1.5 22.5546 1.5 17.5C1.5 12.4454 5.59757 8.34783 10.6522 8.34783Z" fill="#D3FFE0" stroke="black" stroke-width="3"/>
</svg>
