<svg width="59" height="59" viewBox="0 0 59 59" fill="none" xmlns="http://www.w3.org/2000/svg">
<circle cx="29.5" cy="29.5" r="29.5" fill="#2C1C74"/>
<circle cx="29.5" cy="29.5" r="29.5" fill="url(#paint0_radial_156_4)" fill-opacity="0.2"/>
<path d="M38.5 40.7149C38.5 41.7826 38.4308 42.5813 38.3075 43.1679C38.1831 43.7602 38.0128 44.0905 37.8473 44.2693C37.7002 44.4281 37.529 44.4983 37.2887 44.5C37.0249 44.5018 36.6865 44.4188 36.2543 44.2486C35.8267 44.0802 35.3512 43.8447 34.8166 43.5746C34.7615 43.5468 34.7059 43.5186 34.6497 43.4902C34.1674 43.2461 33.6448 42.9817 33.0977 42.7354C31.8775 42.1862 30.4856 41.7034 29 41.7034C27.5144 41.7034 26.1225 42.1862 24.9023 42.7354C24.3552 42.9817 23.8326 43.2461 23.3503 43.4902C23.2941 43.5186 23.2385 43.5468 23.1834 43.5746C22.6488 43.8447 22.1733 44.0802 21.7457 44.2486C21.3135 44.4188 20.9751 44.5018 20.7113 44.5C20.471 44.4983 20.2998 44.4281 20.1527 44.2693C19.9872 44.0905 19.8169 43.7602 19.6925 43.1679C19.5692 42.5813 19.5 41.7826 19.5 40.7149C19.5 36.4558 20.5995 32.6233 22.3508 29.8712C24.1058 27.1132 26.4688 25.5 29 25.5C31.5312 25.5 33.8942 27.1132 35.6492 29.8712C37.4005 32.6233 38.5 36.4558 38.5 40.7149Z" fill="#2C1C74" stroke="#7700FF"/>
<circle cx="29" cy="17" r="4.5" fill="#2C1C74" stroke="#7700FF"/>
<defs>
<radialGradient id="paint0_radial_156_4" cx="0" cy="0" r="1" gradientUnits="userSpaceOnUse" gradientTransform="translate(29.5 29.5) rotate(90) scale(29.5)">
<stop stop-opacity="0"/>
<stop offset="0.58" stop-opacity="0.265"/>
<stop offset="1"/>
</radialGradient>
</defs>
</svg>
